# WaveFront *.obj file (generated by Cinema 4D)

mtllib ./f35.mtl

v 86.074189 9.840406 -151.282363
v 11.925811 8.794348 -109.121229
v 86.074189 9.840406 -170.915007
v 22.976318 8.794348 -186.878771
v 86.074189 10.579283 -151.282363
v 11.925811 11.625340 -109.121229
v 86.074189 10.579283 -170.915007
v 22.976318 11.625340 -186.878771
v 44.352654 8.794348 -180.739052
v 44.352654 8.794348 -123.039161
v 44.352654 11.625340 -123.039161
v 44.352654 11.625340 -180.739052
v 27.980070 8.794348 -186.878771
v 27.980070 8.794348 -109.121229
v 27.980070 11.625340 -109.121229
v 27.980070 11.625340 -186.878771
v 19.292486 8.794348 -157.489630
v 27.980070 8.794348 -157.489630
v 44.352654 8.794348 -158.930875
v 86.074189 9.840406 -163.494678
v 86.074189 10.579283 -163.494678
v 44.352654 11.625340 -158.930875
v 27.980070 11.625340 -157.489630
v 19.292486 11.625340 -157.489630
# 24 vertices

vn -0.025064 -0.999686 0.000000
vn -0.025064 -0.999686 0.000000
vn -0.012533 -0.999922 0.000000
vn -0.012533 -0.999922 0.000000
vn -1.000000 0.000000 0.000000
vn -0.229199 0.000000 0.973380
vn -0.290752 0.000000 0.956798
vn 0.992236 0.000000 0.124373
vn 0.990504 0.000000 0.137482
vn 0.000000 0.000000 -1.000000
vn -0.025064 0.999686 0.000000
vn -0.012533 0.999922 0.000000
vn -0.012533 0.999922 0.000000
vn -0.025064 0.999686 0.000000
vn 0.000000 1.000000 0.000000
vn -0.605036 0.000000 -0.796198
vn -0.560579 0.000000 -0.828101
vn 0.000000 -1.000000 0.000000
vn -0.178425 0.000000 0.983953
vn -0.647682 0.000000 -0.761911
vn 0.000000 0.000000 1.000000
vn 0.988600 0.000000 0.150567
# 22 normals

vt 0.000000 0.000000 0.000000
vt 0.000000 0.622041 0.000000
vt 0.562676 0.622041 0.000000
vt 0.562676 0.000000 0.000000
vt 0.000000 1.000000 0.000000
vt 0.562676 1.000000 0.000000
vt 1.000000 1.000000 0.000000
vt 1.000000 0.622041 0.000000
vt 1.000000 0.000000 0.000000
vt 0.904929 0.000000 0.000000
vt 0.904929 0.622041 0.000000
vt 0.904929 1.000000 0.000000
# 12 texture coordinates

g f35Wings06
usemtl Mat
f 11/4/4 22/3/3 21/2/2 5/1/1
f 21/2/5 20/2/5 1/1/5 5/1/5
f 12/6/7 9/6/7 3/5/6 7/5/6
f 24/8/9 17/8/9 4/7/8 8/7/8
f 15/10/10 14/10/10 2/9/10 6/9/10
f 20/2/14 19/3/13 10/4/12 1/1/11
f 19/3/13 18/11/15 14/10/15 10/4/12
f 11/4/16 5/1/17 1/1/17 10/4/16
f 22/3/3 23/11/18 16/12/18 12/6/3
f 12/6/7 16/12/19 13/12/19 9/6/7
f 18/11/15 17/8/15 2/9/15 14/10/15
f 15/10/20 11/4/16 10/4/16 14/10/20
f 23/11/18 24/8/18 8/7/18 16/12/18
f 16/12/19 8/7/21 4/7/21 13/12/19
f 18/11/15 13/12/15 4/7/15 17/8/15
f 19/3/13 9/6/13 13/12/15 18/11/15
f 20/2/14 3/5/14 9/6/13 19/3/13
f 21/2/5 7/5/5 3/5/5 20/2/5
f 22/3/3 12/6/3 7/5/2 21/2/2
f 22/3/3 11/4/4 15/10/18 23/11/18
f 23/11/18 15/10/18 6/9/18 24/8/18
f 24/8/9 6/9/22 2/9/22 17/8/9

v -33.790724 21.511281 -93.846187
v -49.989794 66.650996 -137.360483
v -33.790724 21.511281 -145.546943
v -50.426438 67.994848 -171.294222
v -37.493647 20.308128 -93.846187
v -50.920782 66.348499 -137.360483
v -37.493647 20.308128 -145.546943
v -51.357427 67.692352 -171.294222
# 8 vertices

vn -0.960052 -0.279820 0.000657
vn 0.309017 -0.951057 0.000000
vn 0.142941 -0.439925 -0.886586
vn -0.308747 0.950234 0.041604
vn -0.207700 0.639234 0.740433
vn 0.941263 0.337673 0.000628
# 6 normals

# 0 texture coordinate

g f35Wings05
usemtl Mat
f 30/9/23 32/7/23 31/5/23 29/1/23
f 31/5/24 27/5/24 25/1/24 29/1/24
f 32/7/25 28/7/25 27/5/25 31/5/25
f 30/9/26 26/9/26 28/7/26 32/7/26
f 29/1/27 25/1/27 26/9/27 30/9/27
f 25/1/28 27/5/28 28/7/28 26/9/28

v 33.790724 21.511281 -93.846187
v 47.217859 67.551652 -137.360483
v 33.790724 21.511281 -145.546943
v 47.654503 68.895504 -171.294222
v 30.087800 22.714433 -93.846187
v 46.286871 67.854148 -137.360483
v 30.087800 22.714433 -145.546943
v 46.723515 69.198001 -171.294222
# 8 vertices

vn -0.941173 0.337926 0.000657
vn -0.309017 -0.951056 0.000000
vn -0.142939 -0.439925 -0.886586
vn 0.308747 0.950234 0.041604
vn 0.207700 0.639234 0.740433
vn 0.959977 -0.280078 0.000628
# 6 normals

# 0 texture coordinate

g f35wings04
usemtl Mat
f 38/9/29 40/7/29 39/5/29 37/1/29
f 39/5/30 35/5/30 33/1/30 37/1/30
f 40/7/31 36/7/31 35/5/31 39/5/31
f 38/9/32 34/9/32 36/7/32 40/7/32
f 37/1/33 33/1/33 34/9/33 38/9/33
f 33/1/34 35/5/34 36/7/34 34/9/34

v -0.175903 6.299793 180.755429
v -0.202178 6.378316 180.755429
v 0.175903 6.299793 180.755429
v 0.202178 6.378316 180.755429
v 8.052887 5.331205 -146.304116
v 9.255739 11.565005 -146.304116
v -8.052887 5.331205 -146.304116
v -9.255739 11.565005 -146.304116
v 12.452476 -2.450580 141.925073
v -12.452476 -2.450580 141.925073
v -14.312490 10.276574 136.060090
v 14.312490 10.276574 136.060090
v 17.822599 -4.793373 87.023771
v -17.822599 -4.793373 87.023771
v -20.484742 17.354245 94.167011
v 20.484742 17.354245 94.167011
v 37.466005 -4.793373 72.050688
v -37.466005 -4.793373 72.050688
v -43.062263 17.354245 72.050688
v 43.062263 17.354245 72.050688
v 37.466005 -4.793373 -3.812928
v -37.466005 -4.793373 -3.812928
v -43.062263 11.472110 -3.812928
v 43.062263 11.472110 -3.812928
v 14.800027 0.550262 -129.586820
v -14.800027 0.550262 -129.586820
v -17.010691 10.366983 -129.586820
v 17.010691 10.366983 -129.586820
v -4.735301 1.192748 -146.304116
v -4.735301 17.110992 -146.304116
v -8.702790 18.420225 -129.586820
v -22.030959 22.833456 -3.812928
v -22.030959 28.715591 72.050688
v -10.480139 23.830461 101.519081
v -7.322371 16.805385 134.730011
v -0.103436 6.418597 180.755429
v -0.103436 6.267064 180.755429
v -7.322371 -7.755238 141.925073
v -10.480139 -14.024467 87.023771
v -22.030959 -14.024467 72.050688
v -22.030959 -14.024467 -3.812928
v -8.702790 -5.992997 -129.586820
v 4.803725 1.192748 -146.304116
v 4.803725 17.110992 -146.304116
v 8.828543 18.420225 -129.586820
v 22.349299 22.833456 -3.812928
v 22.349299 28.715591 72.050688
v 10.631574 23.830461 101.519081
v 7.428177 16.805385 134.730011
v 0.104930 6.418597 180.755429
v 0.104930 6.267064 180.755429
v 7.428177 -7.755238 141.925073
v 10.631574 -14.024467 87.023771
v 22.349299 -14.024467 72.050688
v 22.349299 -14.024467 -3.812928
v 8.828543 -5.992997 -129.586820
v 0.034212 0.331256 -146.304116
v 0.034212 20.042713 -146.304116
v 0.062876 27.228458 -129.586820
v 0.159170 32.739113 -3.812928
v 0.159170 38.621248 72.050688
v 0.075717 38.620200 106.156703
v 0.052903 20.727294 141.925073
v 0.000747 6.462655 180.755429
v 0.000747 6.267064 180.755429
v 0.052903 -7.755238 141.925073
v 0.075717 -14.024467 87.023771
v 0.159170 -14.024467 72.050688
v 0.159170 -14.024467 -3.812928
v 0.062876 -5.992997 -129.586820
v 4.238417 7.631278 -114.804804
v 4.871505 10.912268 -114.804804
v -4.238417 7.631278 -114.804804
v -4.871505 10.912268 -114.804804
v -2.492296 5.453114 -114.804804
v -2.492296 13.831246 -114.804804
v 2.528309 5.453114 -114.804804
v 2.528309 13.831246 -114.804804
v 0.018006 4.999692 -114.804804
v 0.018006 15.374278 -114.804804
v 0.126818 -14.024467 77.855291
v -17.553062 -14.024467 77.855291
v -29.850862 -4.793373 77.855291
v -34.309654 17.354245 80.624505
v -12.568503 28.715591 88.300875
v 0.126818 38.620841 85.272540
v 12.822140 28.715591 88.300875
v 34.309654 17.354245 80.624505
v 29.850862 -4.793373 77.855291
v 17.806698 -14.024467 77.855291
# 90 vertices

vn 0.945782 -0.155185 0.285332
vn 0.969837 -0.141740 0.198308
vn 0.862717 -0.452212 0.226327
vn -0.807299 -0.398884 -0.434925
vn -0.888299 -0.185709 -0.420045
vn -0.924290 -0.228777 -0.305532
vn -0.824682 -0.476880 -0.304112
vn -0.504326 0.822083 0.264263
vn -0.574837 0.781730 0.241785
vn -0.601789 0.759051 0.248377
vn -0.509603 0.818682 0.264697
vn -0.375403 -0.886119 -0.271783
vn -0.684138 -0.591227 -0.427090
vn -0.861121 -0.454155 0.228502
vn -0.539176 -0.768711 0.344053
vn -0.281075 -0.891047 0.356417
vn -0.346870 -0.905634 0.243943
vn -0.969765 -0.136941 0.201997
vn -0.945782 -0.155181 0.285332
vn -0.629536 0.700839 0.335424
vn -0.671335 0.688062 0.275464
vn 0.985811 -0.127115 0.109631
vn 0.795033 -0.441809 0.415605
vn -0.794112 -0.441641 0.417539
vn -0.675053 -0.646078 0.356212
vn -0.986133 -0.117626 0.117076
vn -0.545592 0.729650 0.412238
vn -0.571762 0.765061 0.296260
vn 0.630646 -0.269349 0.727830
vn 0.636685 -0.232635 0.735196
vn 0.599425 -0.454476 0.658894
vn -0.603501 -0.652425 0.458398
vn -0.597367 -0.455320 0.660179
vn -0.520658 -0.659608 0.542063
vn -0.264980 -0.955013 0.133177
vn -0.642209 -0.188350 0.743029
vn -0.637233 -0.223741 0.737478
vn -0.488019 0.858803 0.155870
vn -0.531874 0.841780 -0.092285
vn -0.510667 0.856290 -0.077379
vn -0.468117 0.878019 0.099745
vn 0.958331 -0.285382 0.012621
vn 0.956434 -0.278168 -0.088644
vn 0.812377 -0.577544 -0.080546
vn -0.809666 -0.581362 -0.080366
vn -0.298715 -0.953050 -0.049651
vn -0.956444 -0.278112 -0.088703
vn -0.958361 -0.285402 0.009504
vn -0.653785 0.732771 -0.188714
vn -0.620725 0.763245 -0.179326
vn 0.923831 -0.228715 -0.306960
vn 0.826819 -0.472643 -0.304924
vn -0.711317 0.653544 -0.258665
vn -0.656015 0.704174 -0.271629
vn 0.888299 -0.185709 -0.420045
vn 0.809430 -0.394756 -0.434730
vn -0.596915 0.750727 -0.283021
vn -0.586352 0.792112 -0.169558
vn -0.488973 0.870066 -0.062379
vn -0.446788 0.893545 0.044246
vn -0.589178 0.788759 0.175296
vn -0.709196 0.671619 0.214402
vn -0.628127 0.735248 0.254689
vn -0.514860 0.815248 0.265121
vn 0.000000 -0.940552 0.339649
vn 0.000000 -0.973639 0.228096
vn 0.000000 -0.998384 0.056819
vn 0.000000 -0.999492 -0.031880
vn 0.000681 -0.974128 -0.225997
vn 0.001346 -0.923866 -0.382713
vn -0.080911 -0.917513 -0.389387
vn 0.660505 0.707057 -0.252594
vn 0.715696 0.647684 -0.261315
vn 0.658823 0.727741 -0.190643
vn 0.623185 0.762400 -0.174316
vn 0.537479 0.838162 -0.092747
vn 0.513188 0.854338 -0.082127
vn 0.493550 0.855159 0.158464
vn 0.479158 0.873012 0.090873
vn 0.568944 0.671123 0.475285
vn 0.610141 0.727738 0.313251
vn 0.705838 0.639092 0.305539
vn 0.655528 0.642895 0.396193
vn 0.580256 0.777500 0.242480
vn 0.611734 0.745975 0.263254
vn 0.509277 0.818650 0.265422
vn 0.510454 0.812695 0.281004
vn 0.284983 -0.889423 0.357368
vn 0.545986 -0.763455 0.345016
vn 0.351144 -0.903777 0.244713
vn 0.680703 -0.638143 0.359746
vn 0.528083 -0.651212 0.545024
vn 0.270727 -0.953366 0.133413
vn 0.608952 -0.648626 0.456576
vn 0.303207 -0.951608 -0.050068
vn 0.380136 -0.885175 -0.268257
vn 0.689979 -0.584012 -0.427620
vn 0.600924 0.761730 -0.242194
vn 0.585960 0.794874 -0.157564
vn 0.488363 0.869714 -0.071410
vn 0.462678 0.886197 0.024162
vn 0.632269 0.761574 0.142271
vn 0.747844 0.628665 0.213330
vn 0.642014 0.712320 0.283581
vn 0.511488 0.806513 0.296509
vn 0.083594 -0.923889 -0.373417
vn -0.900958 0.411001 -0.139114
vn -0.973351 0.187814 -0.131584
vn -0.774129 -0.621428 -0.120625
vn -0.656321 -0.744074 -0.124885
vn -0.778914 0.611537 -0.138978
vn 0.653591 -0.746575 -0.124275
vn 0.769522 -0.627224 -0.120104
vn 0.973351 0.187814 -0.131584
vn 0.898851 0.415562 -0.139192
vn 0.772689 0.619424 -0.138800
vn -0.519519 -0.845188 -0.125530
vn 0.000002 0.989195 -0.146606
vn -0.175885 0.973761 -0.144409
vn 0.519554 -0.845244 -0.125004
vn 0.175890 0.973786 -0.144232
vn -0.631424 -0.258840 0.730962
vn 0.641807 -0.195586 0.741505
# 123 normals

vt 0.244196 1.000000 0.000000
vt 0.244196 0.000000 0.000000
vt 0.118726 1.000000 0.000000
vt 0.118726 0.000000 0.000000
vt 0.240500 1.000000 0.000000
vt 0.240500 0.000000 0.000000
vt 0.051114 1.000000 0.000000
vt 0.051114 0.000000 0.000000
vt 0.000000 0.118726 0.000000
vt 0.244196 0.118726 0.000000
vt 0.000000 0.051114 0.000000
vt 0.244196 0.051114 0.000000
vt 0.000000 0.881274 0.000000
vt 0.244196 0.881274 0.000000
vt 0.881274 1.000000 0.000000
vt 0.881274 0.000000 0.000000
vt 0.000000 0.286589 0.000000
vt 0.244196 0.286589 0.000000
vt 0.286589 1.000000 0.000000
vt 0.286589 0.000000 0.000000
vt 0.000000 0.713411 0.000000
vt 0.244196 0.713411 0.000000
vt 0.713411 1.000000 0.000000
vt 0.713411 0.000000 0.000000
vt 0.000000 0.314622 0.000000
vt 0.244196 0.314622 0.000000
vt 0.314622 1.000000 0.000000
vt 0.314622 0.000000 0.000000
vt 0.000000 0.667630 0.000000
vt 0.000000 0.685378 0.000000
vt 0.244196 0.685378 0.000000
vt 0.244196 0.667630 0.000000
vt 0.667630 1.000000 0.000000
vt 0.685378 1.000000 0.000000
vt 0.685378 0.000000 0.000000
vt 0.667630 0.000000 0.000000
vt 0.000000 0.332370 0.000000
vt 0.000000 0.564327 0.000000
vt 0.244196 0.564327 0.000000
vt 0.244196 0.332370 0.000000
vt 0.332370 1.000000 0.000000
vt 0.564326 1.000000 0.000000
vt 0.564326 0.000000 0.000000
vt 0.332370 0.000000 0.000000
vt 0.000000 0.435674 0.000000
vt 0.244196 0.435674 0.000000
vt 0.435674 1.000000 0.000000
vt 0.435674 0.000000 0.000000
vt 0.000000 0.948886 0.000000
vt 0.244196 0.948886 0.000000
vt 0.948886 1.000000 0.000000
vt 0.948886 0.000000 0.000000
vt 0.755803 1.000000 0.000000
vt 0.755803 0.000000 0.000000
vt 0.501848 1.000000 0.000000
vt 0.501848 0.948886 0.000000
vt 0.501848 0.564327 0.000000
vt 0.501848 0.332370 0.000000
vt 0.501848 0.314622 0.000000
vt 0.501848 0.286589 0.000000
vt 0.501848 0.118726 0.000000
vt 0.501848 0.000000 0.000000
vt 0.501848 0.881274 0.000000
vt 0.501848 0.713411 0.000000
vt 0.501848 0.685378 0.000000
vt 0.501848 0.667630 0.000000
vt 0.501848 0.435674 0.000000
vt 0.501848 0.051114 0.000000
vt 0.498152 1.000000 0.000000
vt 0.498152 0.000000 0.000000
vt 0.759500 1.000000 0.000000
vt 1.000000 0.948886 0.000000
vt 0.759500 0.948886 0.000000
vt 1.000000 0.564327 0.000000
vt 0.759500 0.564327 0.000000
vt 1.000000 0.332370 0.000000
vt 0.759500 0.332370 0.000000
vt 1.000000 0.314622 0.000000
vt 0.759500 0.314622 0.000000
vt 0.759500 0.286589 0.000000
vt 1.000000 0.286589 0.000000
vt 1.000000 0.118726 0.000000
vt 0.759500 0.118726 0.000000
vt 0.759500 0.000000 0.000000
vt 1.000000 0.881274 0.000000
vt 0.759500 0.881274 0.000000
vt 1.000000 0.713411 0.000000
vt 0.759500 0.713411 0.000000
vt 1.000000 0.685378 0.000000
vt 0.759500 0.685378 0.000000
vt 0.759500 0.667630 0.000000
vt 1.000000 0.667630 0.000000
vt 1.000000 0.435674 0.000000
vt 0.759500 0.435674 0.000000
vt 1.000000 0.051114 0.000000
vt 0.759500 0.051114 0.000000
vt 0.755804 1.000000 0.000000
vt 0.755804 0.000000 0.000000
vt 0.498152 1.000000 0.000000
vt 0.498152 0.000000 0.000000
# 100 texture coordinates

g f35Cabin
usemtl Mat
f 77/14/21 76/13/21 42/5/21 41/1/21
f 77/14/21 105/74/21 104/67/21 76/13/21
f 91/96/21 43/9/21 44/7/21 90/83/21
f 105/74/21 91/96/21 90/83/21 104/67/21

usemtl matMetalDark
f 117/18/10 118/17/10 112/5/10 111/1/10
f 66/20/41 67/19/40 48/5/39 47/1/38
f 69/14/47 82/24/46 66/23/41 47/1/38
f 71/62/84 70/13/88 48/5/87 67/61/83
f 65/64/86 45/9/90 46/7/89 68/63/85
f 115/66/10 113/9/10 114/7/10 116/65/10
f 71/62/84 99/68/92 98/67/91 70/13/88
f 69/14/105 97/74/104 110/80/103 82/24/46
f 117/18/10 119/82/10 120/81/10 118/17/10
f 85/85/109 68/84/108 46/7/107 84/83/106
f 83/96/131 45/9/90 65/107/86 96/108/130
f 119/82/10 115/66/10 116/65/10 120/81/10
f 99/68/133 85/85/109 84/83/106 98/67/132
f 97/74/104 83/96/140 96/108/130 110/80/103
f 112/5/142 46/5/142 45/1/141 111/1/141
f 118/17/144 84/17/144 46/5/143 112/5/143
f 111/1/141 45/1/141 83/18/145 117/18/145
f 114/7/147 48/7/147 70/109/146 116/65/146
f 113/9/149 47/9/149 48/7/148 114/7/148
f 115/66/150 69/110/150 47/9/149 113/9/149
f 120/81/151 98/111/151 84/17/144 118/17/144
f 117/18/153 83/18/153 97/112/152 119/82/152
f 116/65/146 70/109/146 98/111/154 120/81/154
f 119/82/152 97/112/152 69/110/155 115/66/155

usemtl matMetal
f 49/16/37 52/15/36 44/5/35 43/1/35
f 76/14/45 75/22/44 51/21/43 42/1/42
f 78/26/51 77/13/50 41/5/49 50/25/48
f 50/28/48 41/9/53 42/7/53 51/27/52
f 75/22/44 74/30/55 55/29/54 51/21/43
f 49/16/37 53/32/57 56/31/56 52/15/36
f 79/34/59 78/26/51 50/25/48 54/33/58
f 54/36/58 50/28/48 51/27/52 55/35/60
f 74/30/55 125/38/62 124/37/61 55/29/54
f 53/32/57 129/40/65 128/39/64 56/31/63
f 80/44/69 122/43/68 123/42/67 58/41/66
f 58/48/66 123/47/67 124/46/71 59/45/70
f 73/52/75 72/51/74 63/50/73 59/49/72
f 57/56/76 61/55/78 64/54/77 60/53/76
f 81/58/80 80/44/69 58/41/66 62/57/79
f 62/60/79 58/48/82 59/45/82 63/59/81
f 72/51/74 71/62/84 67/61/83 63/50/73
f 61/55/78 65/64/86 68/63/85 64/54/77
f 82/24/46 81/58/80 62/57/79 66/23/41
f 66/20/41 62/60/79 63/59/81 67/19/40
f 72/51/74 100/69/93 99/68/92 71/62/84
f 73/52/75 101/70/94 100/69/93 72/51/74
f 125/38/62 126/71/95 101/70/94 73/52/75
f 76/14/45 104/74/98 103/73/97 75/22/44
f 78/26/51 106/75/100 105/67/99 77/13/50
f 79/34/101 107/76/101 106/75/100 78/26/51
f 122/43/18 121/77/18 107/76/101 79/34/101
f 81/58/80 109/79/102 108/78/18 80/44/69
f 82/24/46 110/80/103 109/79/102 81/58/80
f 86/87/111 64/86/110 68/84/108 85/85/109
f 87/89/113 60/88/112 64/86/110 86/87/111
f 127/91/115 128/90/114 60/88/112 87/89/113
f 89/95/119 52/94/118 56/93/117 88/92/116
f 90/96/121 44/9/120 52/94/118 89/95/119
f 92/98/124 49/97/37 43/7/123 91/83/122
f 93/100/125 53/99/57 49/97/37 92/98/124
f 130/102/126 129/101/65 53/99/57 93/100/125
f 95/106/129 61/105/78 57/104/128 94/103/127
f 96/108/130 65/107/86 61/105/78 95/106/129
f 100/69/134 86/87/111 85/85/109 99/68/133
f 101/70/135 87/89/113 86/87/111 100/69/134
f 126/71/136 127/91/115 87/89/113 101/70/135
f 104/74/139 90/96/121 89/95/119 103/73/138
f 106/75/100 92/98/124 91/83/122 105/67/99
f 107/76/101 93/100/101 92/98/124 106/75/100
f 121/77/18 130/102/18 93/100/101 107/76/101
f 109/79/102 95/106/129 94/103/127 108/78/18
f 110/80/103 96/108/130 95/106/129 109/79/102
f 122/43/18 80/44/69 108/78/18 121/77/18
f 122/43/68 79/34/59 54/33/58 123/42/67
f 123/47/67 54/36/58 55/35/156 124/46/71
f 125/38/62 73/52/75 59/49/72 124/37/61
f 127/91/115 88/92/116 56/93/117 128/90/114
f 129/40/65 57/56/128 60/53/157 128/39/64
f 130/102/126 94/103/127 57/104/128 129/101/65
f 121/77/18 108/78/18 94/103/127 130/102/18

usemtl matGlass
f 75/22/44 103/73/97 102/72/96 74/30/55
f 103/73/138 89/95/119 88/92/116 102/72/137
f 125/38/62 74/30/55 102/72/96 126/71/95
f 126/71/136 102/72/137 88/92/116 127/91/115

v -136.313441 13.541806 -46.589247
v 136.313441 13.541806 -46.589247
v -136.313441 13.541806 -92.487844
v 136.313441 13.541806 -92.487844
v -136.313441 15.622696 -46.589247
v 136.313441 15.622696 -46.589247
v -136.313441 15.622696 -92.487844
v 136.313441 15.622696 -92.487844
v -53.957866 11.478139 -111.359517
v -53.957866 11.478139 -3.112006
v -53.957866 17.686364 -3.112006
v -53.957866 17.686364 -111.359517
v 51.498205 11.478139 -111.359517
v 51.498205 11.478139 -3.112006
v 51.498205 17.686364 -3.112006
v 51.498205 17.686364 -111.359517
# 16 vertices

vn -0.025050 0.999686 0.000000
vn -0.012526 0.999922 0.000000
vn -0.223360 0.000000 -0.974736
vn -0.112392 0.000000 -0.993664
vn 1.000000 0.000000 0.000000
vn 0.456169 0.000000 0.889893
vn 0.234635 0.000000 0.972084
vn -0.025050 -0.999686 0.000000
vn -0.012526 -0.999922 0.000000
vn 0.012163 -0.999926 0.000000
vn -0.240487 0.000000 0.970652
vn -0.466858 0.000000 0.884332
vn 0.012163 0.999926 0.000000
vn 0.109250 0.000000 -0.994014
vn 0.024324 -0.999704 0.000000
vn 0.024324 0.999704 0.000000
vn 0.217192 0.000000 -0.976129
# 17 normals

vt 0.288821 1.000000 0.000000
vt 0.288821 0.000000 0.000000
vt 0.701552 0.000000 0.000000
vt 0.701552 1.000000 0.000000
# 4 texture coordinates

g f35wings03
usemtl Mat
f 141/114/159 142/113/159 137/5/158 135/1/158
f 137/5/5 133/5/5 131/1/5 135/1/5
f 142/113/161 139/113/161 133/5/160 137/5/160
f 136/9/162 132/9/162 134/7/162 138/7/162
f 145/115/164 144/115/164 132/9/163 136/9/163
f 133/5/165 139/113/166 140/114/166 131/1/165
f 139/113/166 143/116/167 144/115/167 140/114/166
f 141/114/168 135/1/169 131/1/169 140/114/168
f 141/114/159 145/115/170 146/116/170 142/113/159
f 142/113/161 146/116/171 143/116/171 139/113/161
f 143/116/167 134/7/172 132/9/172 144/115/167
f 145/115/164 141/114/168 140/114/168 144/115/164
f 145/115/170 136/9/173 138/7/173 146/116/170
f 146/116/171 138/7/174 134/7/174 143/116/171

v 2.102252 20.507925 -94.226183
v 0.644959 68.444133 -137.740479
v 2.102252 20.507925 -145.926939
v 0.644959 69.857144 -171.674218
v -1.791232 20.507925 -94.226183
v -0.333940 68.444133 -137.740479
v -1.791232 20.507925 -145.926939
v -0.333940 69.857144 -171.674218
# 8 vertices

vn -0.999533 0.030548 0.000657
vn 0.000000 -0.462564 -0.886586
vn 0.000000 0.999134 0.041604
vn 0.000000 0.672131 0.740433
vn 0.999541 0.030279 0.000628
# 5 normals

# 0 texture coordinate

g f35wings02
usemtl Mat
f 152/9/175 154/7/175 153/5/175 151/1/175
f 153/5/18 149/5/18 147/1/18 151/1/18
f 154/7/176 150/7/176 149/5/176 153/5/176
f 152/9/177 148/9/177 150/7/177 154/7/177
f 151/1/178 147/1/178 148/9/178 152/9/178
f 147/1/179 149/5/179 150/7/179 148/9/179

v -86.074189 9.840406 -151.282363
v -11.925811 8.794348 -109.121229
v -86.074189 9.840406 -170.915007
v -22.976318 8.794348 -186.878771
v -86.074189 10.579283 -151.282363
v -11.925811 11.625340 -109.121229
v -86.074189 10.579283 -170.915007
v -22.976318 11.625340 -186.878771
v -44.352654 8.794348 -180.739052
v -44.352654 8.794348 -123.039161
v -44.352654 11.625340 -123.039161
v -44.352654 11.625340 -180.739052
v -27.980070 8.794348 -186.878771
v -27.980070 8.794348 -109.121229
v -27.980070 11.625340 -109.121229
v -27.980070 11.625340 -186.878771
v -19.292486 8.794348 -157.489630
v -27.980070 8.794348 -157.489630
v -44.352654 8.794348 -158.930875
v -86.074189 9.840406 -163.494678
v -86.074189 10.579283 -163.494678
v -44.352654 11.625340 -158.930875
v -27.980070 11.625340 -157.489630
v -19.292486 11.625340 -157.489630
# 24 vertices

vn -0.025064 0.999686 0.000000
vn -0.012533 0.999922 0.000000
vn -0.229199 0.000000 -0.973380
vn -0.290752 0.000000 -0.956798
vn 0.992236 0.000000 -0.124373
vn 0.990504 0.000000 -0.137482
vn -0.012533 -0.999922 0.000000
vn -0.025064 -0.999686 0.000000
vn -0.605036 0.000000 0.796198
vn -0.560579 0.000000 0.828101
vn -0.178425 0.000000 -0.983953
vn -0.647682 0.000000 0.761911
vn 0.988600 0.000000 -0.150567
# 13 normals

# 0 texture coordinate

g f35wings01
usemtl Mat
f 165/4/12 176/3/181 175/2/180 159/1/11
f 175/2/5 174/2/5 155/1/5 159/1/5
f 166/6/183 163/6/183 157/5/182 161/5/182
f 178/8/185 171/8/185 158/7/184 162/7/184
f 169/10/21 168/10/21 156/9/21 160/9/21
f 174/2/187 173/3/186 164/4/4 155/1/1
f 173/3/186 172/11/18 168/10/18 164/4/4
f 165/4/188 159/1/189 155/1/189 164/4/188
f 176/3/181 177/11/15 170/12/15 166/6/181
f 166/6/183 170/12/190 167/12/190 163/6/183
f 172/11/18 171/8/18 156/9/18 168/10/18
f 169/10/191 165/4/188 164/4/188 168/10/191
f 177/11/15 178/8/15 162/7/15 170/12/15
f 170/12/190 162/7/10 158/7/10 167/12/190
f 172/11/18 167/12/18 158/7/18 171/8/18
f 173/3/186 163/6/186 167/12/18 172/11/18
f 174/2/187 157/5/187 163/6/186 173/3/186
f 175/2/5 161/5/5 157/5/5 174/2/5
f 176/3/181 166/6/181 161/5/180 175/2/180
f 176/3/181 165/4/12 169/10/15 177/11/15
f 177/11/15 169/10/15 160/9/15 178/8/15
f 178/8/185 160/9/192 156/9/192 171/8/185

