{
	"scenes":[{
		"nodes":[0]
	}],
	"asset":{
		"version":"2.0",
		"generator":"Created using the official Cinema 4D glTF Exporter 1.000x284978"
	},
	"nodes":[{
		"name":"f35",
		"children":[1,
		2,
		3,
		4,
		5,
		6,
		7]
	},
	{
		"name":"f35Wings06",
		"mesh":0,
		"translation":[49.0,
		8.79434871673584,
		-148.0],
		"rotation":[0.0,
		0.0,
		1.0,
		-6.123234262925839e-17],
		"scale":[-1.0,
		1.0,
		1.0]
	},
	{
		"name":"f35Wings05",
		"mesh":1,
		"translation":[-32.0,
		16.0,
		-126.0],
		"rotation":[0.0,
		0.0,
		0.15643446147441865,
		0.9876883625984192],
		"scale":[1.0,
		1.0,
		1.0]
	},
	{
		"name":"f35wings04",
		"mesh":2,
		"translation":[32.0,
		16.0,
		-126.0],
		"rotation":[0.0,
		0.0,
		0.15643446147441865,
		-0.9876883625984192],
		"scale":[1.0,
		1.0,
		1.0]
	},
	{
		"name":"f35Cabin",
		"translation":[0.0,
		13.558797836303711,
		17.225656509399415],
		"rotation":[0.0,
		0.0,
		0.0,
		-1.0],
		"scale":[1.0,
		1.0,
		1.0],
		"children":[8,
		9,
		10,
		11]
	},
	{
		"name":"f35wings03",
		"mesh":3,
		"translation":[0.0,
		11.47813892364502,
		-51.259918212890628],
		"rotation":[0.0,
		0.0,
		0.0,
		-1.0],
		"scale":[1.0,
		1.0,
		1.0]
	},
	{
		"name":"f35wings02",
		"mesh":4,
		"translation":[2.1022517681121828,
		14.713022232055664,
		-126.37999725341797],
		"rotation":[0.0,
		0.0,
		0.0,
		-1.0],
		"scale":[1.0,
		1.0,
		1.0]
	},
	{
		"name":"f35wings01",
		"mesh":5,
		"translation":[-49.0,
		8.79434871673584,
		-148.0],
		"rotation":[0.0,
		0.0,
		0.0,
		-1.0],
		"scale":[1.0,
		1.0,
		1.0]
	},
	{
		"name":"f35Cabin-Mat",
		"mesh":6
	},
	{
		"name":"f35Cabin-matMetalDark",
		"mesh":7
	},
	{
		"name":"f35Cabin-matMetal",
		"mesh":8
	},
	{
		"name":"f35Cabin-matGlass",
		"mesh":9
	}],
	"meshes":[{
		"name":"f35Wings06",
		"primitives":[{
			"attributes":{
				"POSITION":1,
				"NORMAL":2,
				"TEXCOORD_0":3
			},
			"indices":0,
			"material":0
		}]
	},
	{
		"name":"f35Wings05",
		"primitives":[{
			"attributes":{
				"POSITION":5,
				"NORMAL":6,
				"TEXCOORD_0":7
			},
			"indices":4,
			"material":0
		}]
	},
	{
		"name":"f35wings04",
		"primitives":[{
			"attributes":{
				"POSITION":9,
				"NORMAL":10,
				"TEXCOORD_0":11
			},
			"indices":8,
			"material":0
		}]
	},
	{
		"name":"f35wings03",
		"primitives":[{
			"attributes":{
				"POSITION":13,
				"NORMAL":14,
				"TEXCOORD_0":15
			},
			"indices":12,
			"material":0
		}]
	},
	{
		"name":"f35wings02",
		"primitives":[{
			"attributes":{
				"POSITION":17,
				"NORMAL":18,
				"TEXCOORD_0":19
			},
			"indices":16,
			"material":0
		}]
	},
	{
		"name":"f35wings01",
		"primitives":[{
			"attributes":{
				"POSITION":21,
				"NORMAL":22,
				"TEXCOORD_0":23
			},
			"indices":20,
			"material":0
		}]
	},
	{
		"name":"f35Cabin-Mat",
		"primitives":[{
			"attributes":{
				"POSITION":25,
				"NORMAL":26,
				"TEXCOORD_0":27
			},
			"indices":24,
			"material":1
		}]
	},
	{
		"name":"f35Cabin-matMetalDark",
		"primitives":[{
			"attributes":{
				"POSITION":29,
				"NORMAL":30,
				"TEXCOORD_0":31
			},
			"indices":28,
			"material":2
		}]
	},
	{
		"name":"f35Cabin-matMetal",
		"primitives":[{
			"attributes":{
				"POSITION":33,
				"NORMAL":34,
				"TEXCOORD_0":35
			},
			"indices":32,
			"material":0
		}]
	},
	{
		"name":"f35Cabin-matGlass",
		"primitives":[{
			"attributes":{
				"POSITION":37,
				"NORMAL":38,
				"TEXCOORD_0":39
			},
			"indices":36,
			"material":3
		}]
	}],
	"accessors":[{
		"bufferView":0,
		"min":[0],
		"type":"SCALAR",
		"componentType":5123,
		"count":132,
		"byteOffset":0,
		"max":[53]
	},
	{
		"bufferView":1,
		"min":[-37.074188232421878,
		0.0,
		-38.8787727355957],
		"type":"VEC3",
		"componentType":5126,
		"count":54,
		"byteOffset":0,
		"max":[37.074188232421878,
		2.8309919834136965,
		38.8787727355957]
	},
	{
		"bufferView":1,
		"min":[-1.0,
		-1.0,
		-1.0],
		"type":"VEC3",
		"componentType":5126,
		"count":54,
		"byteOffset":12,
		"max":[0.9922389388084412,
		1.0,
		1.0]
	},
	{
		"bufferView":1,
		"min":[0.0,
		0.0],
		"type":"VEC2",
		"componentType":5126,
		"count":54,
		"byteOffset":24,
		"max":[1.0,
		1.0]
	},
	{
		"bufferView":2,
		"min":[0],
		"type":"SCALAR",
		"componentType":5123,
		"count":36,
		"byteOffset":0,
		"max":[23]
	},
	{
		"bufferView":3,
		"min":[-3.893483877182007,
		5.79490327835083,
		-45.29422378540039],
		"type":"VEC3",
		"componentType":5126,
		"count":24,
		"byteOffset":0,
		"max":[0.0,
		55.14412307739258,
		32.153812408447269]
	},
	{
		"bufferView":3,
		"min":[-0.9995648860931397,
		-1.0,
		-0.886581540107727],
		"type":"VEC3",
		"componentType":5126,
		"count":24,
		"byteOffset":12,
		"max":[0.9995445013046265,
		0.9991346597671509,
		0.7404235601425171]
	},
	{
		"bufferView":3,
		"min":[0.0,
		0.0],
		"type":"VEC2",
		"componentType":5126,
		"count":24,
		"byteOffset":24,
		"max":[1.0,
		1.0]
	},
	{
		"bufferView":4,
		"min":[0],
		"type":"SCALAR",
		"componentType":5123,
		"count":36,
		"byteOffset":0,
		"max":[23]
	},
	{
		"bufferView":5,
		"min":[-3.893483877182007,
		5.79490327835083,
		-45.29422378540039],
		"type":"VEC3",
		"componentType":5126,
		"count":24,
		"byteOffset":0,
		"max":[0.0,
		55.14412307739258,
		32.153812408447269]
	},
	{
		"bufferView":5,
		"min":[-0.9995648860931397,
		-1.0,
		-0.886581540107727],
		"type":"VEC3",
		"componentType":5126,
		"count":24,
		"byteOffset":12,
		"max":[0.9995445013046265,
		0.9991346597671509,
		0.7404235601425171]
	},
	{
		"bufferView":5,
		"min":[0.0,
		0.0],
		"type":"VEC2",
		"componentType":5126,
		"count":24,
		"byteOffset":24,
		"max":[1.0,
		1.0]
	},
	{
		"bufferView":6,
		"min":[0],
		"type":"SCALAR",
		"componentType":5123,
		"count":84,
		"byteOffset":0,
		"max":[39]
	},
	{
		"bufferView":7,
		"min":[-136.31344604492188,
		0.0,
		-60.0995979309082],
		"type":"VEC3",
		"componentType":5126,
		"count":40,
		"byteOffset":0,
		"max":[136.31344604492188,
		6.208225250244141,
		48.147911071777347]
	},
	{
		"bufferView":7,
		"min":[-1.0,
		-0.9999672770500183,
		-0.9973479509353638],
		"type":"VEC3",
		"componentType":5126,
		"count":40,
		"byteOffset":12,
		"max":[1.0,
		0.9999672770500183,
		0.9871567487716675]
	},
	{
		"bufferView":7,
		"min":[0.0,
		0.0],
		"type":"VEC2",
		"componentType":5126,
		"count":40,
		"byteOffset":24,
		"max":[1.0,
		1.0]
	},
	{
		"bufferView":8,
		"min":[0],
		"type":"SCALAR",
		"componentType":5123,
		"count":36,
		"byteOffset":0,
		"max":[23]
	},
	{
		"bufferView":9,
		"min":[-3.893483877182007,
		5.79490327835083,
		-45.29422378540039],
		"type":"VEC3",
		"componentType":5126,
		"count":24,
		"byteOffset":0,
		"max":[0.0,
		55.14412307739258,
		32.153812408447269]
	},
	{
		"bufferView":9,
		"min":[-0.9995648860931397,
		-1.0,
		-0.886581540107727],
		"type":"VEC3",
		"componentType":5126,
		"count":24,
		"byteOffset":12,
		"max":[0.9995445013046265,
		0.9991346597671509,
		0.7404235601425171]
	},
	{
		"bufferView":9,
		"min":[0.0,
		0.0],
		"type":"VEC2",
		"componentType":5126,
		"count":24,
		"byteOffset":24,
		"max":[1.0,
		1.0]
	},
	{
		"bufferView":10,
		"min":[0],
		"type":"SCALAR",
		"componentType":5123,
		"count":132,
		"byteOffset":0,
		"max":[53]
	},
	{
		"bufferView":11,
		"min":[-37.074188232421878,
		0.0,
		-38.8787727355957],
		"type":"VEC3",
		"componentType":5126,
		"count":54,
		"byteOffset":0,
		"max":[37.074188232421878,
		2.8309919834136965,
		38.8787727355957]
	},
	{
		"bufferView":11,
		"min":[-1.0,
		-1.0,
		-1.0],
		"type":"VEC3",
		"componentType":5126,
		"count":54,
		"byteOffset":12,
		"max":[0.9922389388084412,
		1.0,
		1.0]
	},
	{
		"bufferView":11,
		"min":[0.0,
		0.0],
		"type":"VEC2",
		"componentType":5126,
		"count":54,
		"byteOffset":24,
		"max":[1.0,
		1.0]
	},
	{
		"bufferView":12,
		"min":[0],
		"type":"SCALAR",
		"componentType":5123,
		"count":24,
		"byteOffset":0,
		"max":[9]
	},
	{
		"bufferView":13,
		"min":[-0.20217780768871308,
		-7.291733741760254,
		163.52976989746095],
		"type":"VEC3",
		"componentType":5126,
		"count":10,
		"byteOffset":0,
		"max":[0.20217780768871308,
		-7.096142768859863,
		163.52976989746095]
	},
	{
		"bufferView":13,
		"min":[0.0,
		0.0,
		1.0],
		"type":"VEC3",
		"componentType":5126,
		"count":10,
		"byteOffset":12,
		"max":[0.0,
		0.0,
		1.0]
	},
	{
		"bufferView":13,
		"min":[0.0,
		0.0],
		"type":"VEC2",
		"componentType":5126,
		"count":10,
		"byteOffset":24,
		"max":[1.0,
		1.0]
	},
	{
		"bufferView":14,
		"min":[0],
		"type":"SCALAR",
		"componentType":5123,
		"count":144,
		"byteOffset":0,
		"max":[69]
	},
	{
		"bufferView":15,
		"min":[-17.010690689086915,
		-19.551794052124025,
		-163.52976989746095],
		"type":"VEC3",
		"componentType":5126,
		"count":70,
		"byteOffset":0,
		"max":[17.010690689086915,
		13.669660568237305,
		-132.03045654296876]
	},
	{
		"bufferView":15,
		"min":[-0.973353385925293,
		-0.9284877777099609,
		-1.0],
		"type":"VEC3",
		"componentType":5126,
		"count":70,
		"byteOffset":12,
		"max":[0.973353385925293,
		0.987450897693634,
		-0.12009638547897339]
	},
	{
		"bufferView":15,
		"min":[0.0,
		0.0],
		"type":"VEC2",
		"componentType":5126,
		"count":70,
		"byteOffset":24,
		"max":[1.0,
		1.0]
	},
	{
		"bufferView":16,
		"min":[0],
		"type":"SCALAR",
		"componentType":5123,
		"count":336,
		"byteOffset":0,
		"max":[116]
	},
	{
		"bufferView":17,
		"min":[-43.06226348876953,
		-27.58326530456543,
		-146.81246948242188],
		"type":"VEC3",
		"componentType":5126,
		"count":117,
		"byteOffset":0,
		"max":[43.06226348876953,
		25.062450408935548,
		163.52976989746095]
	},
	{
		"bufferView":17,
		"min":[-0.9693601131439209,
		-1.0,
		-0.19622138142585755],
		"type":"VEC3",
		"componentType":5126,
		"count":117,
		"byteOffset":12,
		"max":[0.9806727766990662,
		0.9121218323707581,
		0.7430270910263062]
	},
	{
		"bufferView":17,
		"min":[0.0,
		0.0],
		"type":"VEC2",
		"componentType":5126,
		"count":117,
		"byteOffset":24,
		"max":[1.0,
		1.0]
	},
	{
		"bufferView":18,
		"min":[0],
		"type":"SCALAR",
		"componentType":5123,
		"count":24,
		"byteOffset":0,
		"max":[11]
	},
	{
		"bufferView":19,
		"min":[-12.568503379821778,
		3.246586799621582,
		68.04688262939453],
		"type":"VEC3",
		"componentType":5126,
		"count":12,
		"byteOffset":0,
		"max":[12.822139739990235,
		25.062044143676759,
		124.69941711425781]
	},
	{
		"bufferView":19,
		"min":[-0.8257662057876587,
		0.5080182552337647,
		0.001500043086707592],
		"type":"VEC3",
		"componentType":5126,
		"count":12,
		"byteOffset":12,
		"max":[0.8231858015060425,
		0.7885851263999939,
		0.3674756586551666]
	},
	{
		"bufferView":19,
		"min":[0.24419644474983216,
		0.685377836227417],
		"type":"VEC2",
		"componentType":5126,
		"count":12,
		"byteOffset":24,
		"max":[0.7594997882843018,
		0.8812743425369263]
	}],
	"bufferViews":[{
		"buffer":0,
		"byteOffset":0,
		"byteLength":264,
		"target":34963
	},
	{
		"buffer":0,
		"byteOffset":264,
		"byteLength":1728,
		"target":34962,
		"byteStride":32
	},
	{
		"buffer":1,
		"byteOffset":0,
		"byteLength":72,
		"target":34963
	},
	{
		"buffer":1,
		"byteOffset":72,
		"byteLength":768,
		"target":34962,
		"byteStride":32
	},
	{
		"buffer":2,
		"byteOffset":0,
		"byteLength":72,
		"target":34963
	},
	{
		"buffer":2,
		"byteOffset":72,
		"byteLength":768,
		"target":34962,
		"byteStride":32
	},
	{
		"buffer":3,
		"byteOffset":0,
		"byteLength":168,
		"target":34963
	},
	{
		"buffer":3,
		"byteOffset":168,
		"byteLength":1280,
		"target":34962,
		"byteStride":32
	},
	{
		"buffer":4,
		"byteOffset":0,
		"byteLength":72,
		"target":34963
	},
	{
		"buffer":4,
		"byteOffset":72,
		"byteLength":768,
		"target":34962,
		"byteStride":32
	},
	{
		"buffer":5,
		"byteOffset":0,
		"byteLength":264,
		"target":34963
	},
	{
		"buffer":5,
		"byteOffset":264,
		"byteLength":1728,
		"target":34962,
		"byteStride":32
	},
	{
		"buffer":6,
		"byteOffset":0,
		"byteLength":48,
		"target":34963
	},
	{
		"buffer":6,
		"byteOffset":48,
		"byteLength":320,
		"target":34962,
		"byteStride":32
	},
	{
		"buffer":7,
		"byteOffset":0,
		"byteLength":288,
		"target":34963
	},
	{
		"buffer":7,
		"byteOffset":288,
		"byteLength":2240,
		"target":34962,
		"byteStride":32
	},
	{
		"buffer":8,
		"byteOffset":0,
		"byteLength":672,
		"target":34963
	},
	{
		"buffer":8,
		"byteOffset":672,
		"byteLength":3744,
		"target":34962,
		"byteStride":32
	},
	{
		"buffer":9,
		"byteOffset":0,
		"byteLength":48,
		"target":34963
	},
	{
		"buffer":9,
		"byteOffset":48,
		"byteLength":384,
		"target":34962,
		"byteStride":32
	}],
	"buffers":[{
		"uri":"data:application/octet-stream;base64,",
		"byteLength":1992
	},
	{
		"uri":"data:application/octet-stream;base64,",
		"byteLength":840
	},
	{
		"uri":"data:application/octet-stream;base64,",
		"byteLength":840
	},
	{
		"uri":"data:application/octet-stream;base64,",
		"byteLength":1448
	},
	{
		"uri":"data:application/octet-stream;base64,",
		"byteLength":840
	},
	{
		"uri":"data:application/octet-stream;base64,",
		"byteLength":1992
	},
	{
		"uri":"data:application/octet-stream;base64,",
		"byteLength":368
	},
	{
		"uri":"data:application/octet-stream;base64,",
		"byteLength":2528
	},
	{
		"uri":"data:application/octet-stream;base64,",
		"byteLength":4416
	},
	{
		"uri":"data:application/octet-stream;base64,",
		"byteLength":432
	}],
	"materials":[{
		"pbrMetallicRoughness":{
			"baseColorFactor":[0.12538666666666677,
			0.12480000000000001,
			0.16,
			1.0],
			"metallicFactor":0.0,
			"roughnessFactor":0.5
		},
		"emissiveFactor":[0.0,
		0.0,
		0.0],
		"alphaMode":"OPAQUE",
		"doubleSided":false,
		"name":"matMetal"
	},
	{
		"pbrMetallicRoughness":{
			"baseColorFactor":[0.8,
			0.8,
			0.8,
			0.30999999999999996],
			"metallicFactor":0.0,
			"roughnessFactor":0.5
		},
		"emissiveFactor":[0.0,
		0.0,
		0.0],
		"alphaMode":"BLEND",
		"doubleSided":false,
		"name":"Mat"
	},
	{
		"pbrMetallicRoughness":{
			"baseColorFactor":[0.0313466666666667,
			0.031200000000000007,
			0.04,
			1.0],
			"metallicFactor":0.0,
			"roughnessFactor":0.5
		},
		"emissiveFactor":[0.0,
		0.0,
		0.0],
		"alphaMode":"OPAQUE",
		"doubleSided":false,
		"name":"matMetalDark"
	},
	{
		"pbrMetallicRoughness":{
			"baseColorFactor":[0.66,
			0.40699999999999977,
			0.0,
			1.0],
			"metallicFactor":0.0,
			"roughnessFactor":0.5
		},
		"emissiveFactor":[0.0,
		0.0,
		0.0],
		"alphaMode":"OPAQUE",
		"doubleSided":false,
		"name":"matGlass"
	}]
}